<svg xmlns="http://www.w3.org/2000/svg" viewBox="0 0 509 508" width="509" height="508"><g stroke-width="2" fill="none" stroke-linecap="butt"/><path d="M 195.32 388.15L 139.65 388.15A 0.34 0.34 34.93 0 0 139.33 388.38L 105.58 486.77A 0.34 0.34 46.86 0 1 105.26 487L 3.13 487A 0.34 0.34 -57.71 0 1 2.81 486.54L 170.16 22.41A 0.34 0.34 -39.61 0 1 170.48 22.19L 287.83 22.19A 0.34 0.34 22.76 0 1 288.15 22.41L 344.09 177.54A 0.34 0.34 24.65 0 1 343.77 178L 246.94 178A 0.34 0.34 -62.22 0 1 246.62 177.77L 229.46 127.93A 0.34 0.34 89.81 0 0 228.82 127.93L 167.67 306.22A 0.34 0.34 18.92 0 0 167.67 306.44L 195.64 387.7A 0.34 0.34 -70.96 0 1 195.32 388.15Z" fill="#2e5f3f"/><path d="M 209.97 306.32L 261.1 306.32A 1.06 0.96 -47.86 0 0 261.3 306.3Q 262.52 306 263 306Q 277.71 306.01 290.19 305.99A 0.32 0.32 80.72 0 0 290.49 305.57L 258.5 212.64A 0.49 0.48 -9.44 0 1 258.96 212L 356.05 212A 0.65 0.64 -9.52 0 1 356.66 212.43L 390.24 305.55A 0.68 0.68 -9.74 0 0 390.88 306L 477.22 306A 0.42 0.41 79.92 0 1 477.61 306.28L 505.54 387.4A 0.46 0.45 80.75 0 1 505.11 388L 420.41 388A 0.31 0.31 -9.97 0 0 420.12 388.41L 455.5 486.54A 0.35 0.34 -9.94 0 1 455.17 487L 352.65 487A 0.61 0.6 -9.5 0 1 352.08 486.6L 318.37 388.69A 0.79 0.78 80.63 0 0 317.63 388.15L 237.61 388.15A 0.47 0.47 -9.74 0 1 237.17 387.84L 209.39 307.14A 0.62 0.61 80.5 0 1 209.97 306.32Z" fill="#2e5f3f"/></svg>